<?xml version="1.0" encoding="UTF-8"?>
<!-- Generated by jsxcad -->
<!DOCTYPE svg PUBLIC "-//W3C//DTD SVG 1.1 Tiny//EN" "http://www.w3.org/Graphics/SVG/1.1/DTD/svg11-tiny.dtd">
<svg viewBox="-250 -250 500 500" width="500" height="500" xmlns="http://www.w3.org/2000/svg"><path d="M-44.815156842662915,-92.1501993324821L-36.077955290604294,-96.34590843012425M-53.393201391857865,-87.63158702905118L-44.815156842662915,-92.1501993324821M-61.78941147980426,-82.80188069754206L-53.393201391857865,-87.63158702905118M-36.077955290604294,-96.34590843012425L-27.204502506965692,-100.20732525541712M-69.98129954871109,-77.67333136477087L-61.78941147980426,-82.80188069754206M-27.204502506965692,-100.20732525541712L-18.217973896359812,-103.72346530238286M-77.94653332982627,-72.2586593665447L-69.98129954871109,-77.67333136477087M-18.217973896359812,-103.72346530238286L-9.14185782068681,-106.88373971034198M-85.66290592255801,-66.5710870411448L-77.94653332982627,-72.2586593665447M-9.14185782068681,-106.88373971034198L-1.8670502539571543e-14,-109.67795341786483M-93.10831145969485,-60.62437613837394L-85.66290592255801,-66.5710870411448M-1.8670502539571543e-14,-109.67795341786483L9.183351968873769,-112.09631080775067M-100.26072726645516,-54.4328693882277L-93.10831145969485,-60.62437613837394M9.183351968873769,-112.09631080775067L18.3835049783094,-114.12942925244077M-107.09820343849903,-48.01153562594964L-100.26072726645516,-54.4328693882277M18.3835049783094,-114.12942925244077L27.575278716458588,-115.76836095449082M-113.59886078445095,-41.376017812541974L-107.09820343849903,-48.01153562594964M27.575278716458588,-115.76836095449082L36.732967033963675,-117.00462345719048M-119.74089809947753,-34.542683220945236L-113.59886078445095,-41.376017812541974M36.732967033963675,-117.00462345719048L45.83030356273864,-117.830239173603M-125.50260975514996,-27.52867497758841L-119.74089809947753,-34.542683220945236M45.83030356273864,-117.830239173603L54.840432858490516,-118.2377842454876M-130.8624146038974,-20.35196405667127L-125.50260975514996,-27.52867497758841M54.840432858490516,-118.2377842454876L63.73588842366169,-118.2204469939001M-135.7988972000426,-13.031400720608664L-130.8624146038974,-20.35196405667127M63.73588842366169,-118.2204469939001L72.4885790550526,-117.77209615774021M-140.29086232941987,-5.586764285282168L-135.7988972000426,-13.031400720608664M72.4885790550526,-117.77209615774021L81.06978504708151,-116.88735903204159M-144.31740381118925,1.9611900356016096L-140.29086232941987,-5.586764285282168M81.06978504708151,-116.88735903204159L89.4501658632482,-115.56170951129147M-147.85798848344922,9.590688584626298L-144.31740381118925,1.9611900356016096M89.4501658632482,-115.56170951129147L97.59978095980979,-113.79156591150105M-150.89255620304638,17.278902527461916L-147.85798848344922,9.590688584626298M97.59978095980979,-113.79156591150105L105.48812550096189,-111.5743982853449M-153.40163657369413,25.001918584181297L-150.89255620304638,17.278902527461916M105.48812550096189,-111.5743982853449L113.08418273706877,-108.90884475503053M-155.36648295913102,32.734719010829004L-153.40163657369413,25.001918584181297M113.08418273706877,-108.90884475503053L120.35649481889705,-105.79483616583718M-156.7692241336498,40.451172741274526L-155.36648295913102,32.734719010829004M120.35649481889705,-105.79483616583718L127.27325378279721,-102.23372810849432M-157.59303366533618,48.12403970705704L-156.7692241336498,40.451172741274526M127.27325378279721,-102.23372810849432L133.80241435509848,-98.22843907088868M-157.82231681293504,55.72499043577353L-157.59303366533618,48.12403970705704M133.80241435509848,-98.22843907088868L139.91183007898005,-93.78359316056067M-157.4429143417212,63.22464307726064L-157.82231681293504,55.72499043577353M139.91183007898005,-93.78359316056067L145.56941405404925,-88.90566549239797M-156.44232222507836,70.59262001104139L-157.4429143417212,63.22464307726064M145.56941405404925,-88.90566549239797L150.74332528848714,-83.60312796626978M-154.8099256968973,77.7976261371831L-156.44232222507836,70.59262001104139M150.74332528848714,-83.60312796626978L155.40218128759255,-77.88659277490363M-152.53724555847165,84.80755083438603L-154.8099256968973,77.7976261371831M155.40218128759255,-77.88659277490363L159.51529703425638,-71.76895059357744M-149.61819402885996,91.58959537240553L-152.53724555847165,84.80755083438603M159.51529703425638,-71.76895059357744L163.05294995222422,-65.26550002354985M-146.0493367703425,98.11042728019545L-149.61819402885996,91.58959537240553M163.05294995222422,-65.26550002354985L165.9866697812903,-58.39406450683668M-141.83015703590218,104.336362787312L-146.0493367703425,98.11042728019545M165.9866697812903,-58.39406450683668L168.28955153852448,-51.17509262001126M-136.96331719383156,110.23357796747415L-141.83015703590218,104.336362787312M168.28955153852448,-51.17509262001126L169.9365889003047,-43.63173741065321M-131.45491221098874,115.7683486164767L-136.96331719383156,110.23357796747415M169.9365889003047,-43.63173741065321L170.9050244315238,-35.789910285215456M-125.31470905120045,120.90731819319228L-131.45491221098874,115.7683486164767M170.9050244315238,-35.789910285215456L171.17471213293027,-27.678304915686834M-118.55636540356421,125.61779234896625L-125.31470905120045,120.90731819319228M171.17471213293027,-27.678304915686834L170.72848680439014,-19.328386728482396M-111.19762073503242,129.86805768061964L-118.55636540356421,125.61779234896625M170.72848680439014,-19.328386728482396L169.5525337673533,-10.77434379469764M-103.26045240262502,133.6277213859999L-111.19762073503242,129.86805768061964M169.5525337673533,-10.77434379469764L167.6367515969478,-2.0529953748695453M-94.77118950270979,136.8680675065877L-103.26045240262502,133.6277213859999M167.6367515969478,-2.0529953748695453L164.97509973128038,6.796345003143782M-85.7605773151039,139.5624244445539L-94.77118950270979,136.8680675065877M164.97509973128038,6.796345003143782L161.56592220453422,15.732054231945447M-76.26378564980027,141.6865374841092L-85.7605773151039,139.5624244445539M161.56592220453422,15.732054231945447L157.41223834410007,24.710433360780776M-66.32035514670886,143.21893917664855L-76.26378564980027,141.6865374841092M157.41223834410007,24.710433360780776L152.52199113073883,33.68599046804277M-55.974076624884916,144.14130971712373L-66.32035514670886,143.21893917664855M152.52199113073883,33.68599046804277L146.90824408915378,42.6117714111711M-45.27279992358301,144.43881889699347L-55.974076624884916,144.14130971712373M146.90824408915378,42.6117714111711L140.5893180889532,51.43973573524633M-34.26817030247895,144.10044091612963L-45.27279992358301,144.43881889699347M140.5893180889532,51.43973573524633L133.58886031353975,60.12117349992512M-23.01529233363758,143.119233315062L-34.26817030247895,144.10044091612963M133.58886031353975,60.12117349992512L125.93583890040397,68.60715726216594M-11.572323266001023,141.4925715827564L-23.01529233363758,143.119233315062M125.93583890040397,68.60715726216594L117.66445835399351,76.84902199852596M4.636329514066356e-14,139.22233162296513L-11.572323266001023,141.4925715827564M117.66445835399351,76.84902199852596L108.81399274360975,84.7988644388141M11.638894013194768,136.31501322669266L4.636329514066356e-14,139.22233162296513M108.81399274360975,84.7988644388141L99.42853586392103,92.41005218537931M23.280113534597653,132.78179898345385L11.638894013194768,136.31501322669266M99.42853586392103,92.41005218537931L89.55666987511141,99.6377321768011M34.85857763148611,128.63854463426705L23.280113534597653,132.78179898345385M89.55666987511141,99.6377321768011L79.25105635749058,106.4393275783689M46.30902513470872,123.90569867042178L34.85857763148611,128.63854463426705M79.25105635749058,106.4393275783689L68.56795610445437,112.77501208649883M57.5666862261444,118.6081509431288L46.30902513470872,123.90569867042178M68.56795610445437,112.77501208649883L57.5666862261444,118.6081509431288" style="fill:none;stroke:rgb(255,0,0);stroke-width:1;stroke-linecap:round"/></svg>
